<?xml version="1.0" encoding="utf-8"?>
<!-- Generator: Adobe Illustrator 16.0.0, SVG Export Plug-In . SVG Version: 6.00 Build 0)  -->
<!DOCTYPE svg PUBLIC "-//W3C//DTD SVG 1.1//EN" "http://www.w3.org/Graphics/SVG/1.1/DTD/svg11.dtd">
<svg version="1.1" id="Capa_1" xmlns="http://www.w3.org/2000/svg" xmlns:xlink="http://www.w3.org/1999/xlink" x="0px" y="0px"
	 width="24px" height="24px" viewBox="0 0 24 24" enable-background="new 0 0 24 24" xml:space="preserve">
<circle fill="#FFFFFF" stroke="#FFFFFF" stroke-miterlimit="10" cx="12.001" cy="10.25" r="9"/>
<g id="Capa_1_1_" display="none">
	<circle display="inline" fill="#9A7D22" cx="12" cy="10.4" r="10"/>
</g>
<g id="Capa_3">
	<path d="M11.998,0.001L11.998,0.001C6.338-0.084,1.682,4.435,1.597,10.094c0,0.044,0,0.089,0,0.133
		c0,3.126,1.311,5.527,3.563,7.753c2.972,2.929,5.813,5.599,5.813,5.599c0.311,0.3,0.737,0.45,1.167,0.412v-0.412l0,0V24
		c0.368-0.079,0.715-0.232,1.021-0.455c0,0,2.741-2.74,5.696-5.652c2.254-2.221,3.547-4.533,3.547-7.677
		C22.377,4.547,17.76-0.027,12.091,0C12.06,0,12.029,0,11.998,0.001z M11.998,19c-4.946,0.003-8.957-4.004-8.959-8.949
		c-0.003-4.945,4.003-8.956,8.948-8.959c4.945-0.002,8.957,4.003,8.958,8.949c0,0.003,0,0.007,0,0.011
		C20.941,14.995,16.936,19,11.992,19H11.998z"/>
</g>
<path d="M16.309,5.699h0.235C16.796,5.699,17,5.495,17,5.243c0-0.252-0.204-0.456-0.456-0.456h-0.265l-0.707-0.986
	c-0.152-0.21-0.395-0.334-0.654-0.335H9.102C8.848,3.467,8.608,3.587,8.457,3.792L7.719,4.787H7.456C7.204,4.787,7,4.991,7,5.243
	c0,0.251,0.204,0.456,0.456,0.456h0.232l1.314,9.339c0,0.011-0.363,0-0.363,0v-0.755c0-0.264-0.214-0.479-0.479-0.479l0,0H7.941
	c-0.265,0-0.479,0.215-0.479,0.479l0,0v2.192c0,0.265,0.214,0.479,0.479,0.479l0,0H8.16c0.264,0,0.479-0.214,0.479-0.479l0,0v-0.541
	l0.956,0.007c0.213,0.138,0.462,0.211,0.717,0.211H13.9c0.254,0,0.504-0.073,0.717-0.211l0.832-0.007v0.541
	c0,0.265,0.213,0.479,0.479,0.479l0,0h0.219c0.264,0,0.479-0.214,0.479-0.479l0,0v-2.191c0-0.265-0.215-0.478-0.479-0.478l0,0
	h-0.219c-0.266,0-0.479,0.213-0.479,0.478l0,0v0.755h-0.262c0-0.02,0.007-0.039,0.01-0.061L16.309,5.699z M11.8,11.055
	c0,0.051-0.041,0.091-0.09,0.091h-0.568c-0.064-0.001-0.123-0.036-0.154-0.092l-0.207-0.356c-0.033-0.057-0.033-0.126,0-0.183
	l0.267-0.457l-0.101-0.059c-0.019-0.011-0.024-0.035-0.014-0.053c0.006-0.009,0.015-0.016,0.026-0.018l0.4-0.078
	c0.076-0.015,0.152,0.029,0.177,0.104l0.131,0.382c0.006,0.021-0.005,0.043-0.026,0.05c-0.01,0.003-0.021,0.002-0.03-0.003
	l-0.101-0.059l-0.162,0.287h0.364c0.05,0,0.09,0.04,0.09,0.09c0,0,0,0,0,0.001L11.8,11.055z M12.202,9.69l0.101-0.059L12.139,9.35
	l-0.182,0.315c-0.024,0.043-0.079,0.058-0.122,0.034c0,0-0.001,0-0.002,0l-0.309-0.177c-0.043-0.024-0.059-0.079-0.034-0.122
	c0,0,0-0.001,0.001-0.001l0.283-0.492c0.033-0.057,0.093-0.091,0.159-0.091h0.407c0.065,0,0.125,0.035,0.159,0.091l0.264,0.458
	l0.101-0.059c0.019-0.01,0.043-0.003,0.054,0.016c0.004,0.009,0.006,0.021,0.002,0.031l-0.134,0.386
	c-0.024,0.074-0.101,0.118-0.178,0.102l-0.397-0.077C12.19,9.76,12.176,9.74,12.179,9.719C12.181,9.706,12.19,9.695,12.202,9.69z
	 M13.463,10.695l-0.201,0.354c-0.031,0.056-0.091,0.091-0.154,0.092h-0.529v0.116c0,0.021-0.018,0.039-0.039,0.039
	c-0.012,0.001-0.021-0.004-0.029-0.013l-0.268-0.31c-0.052-0.059-0.052-0.146,0-0.205l0.262-0.309
	c0.015-0.017,0.039-0.018,0.055-0.004c0.01,0.007,0.014,0.018,0.014,0.03v0.125h0.326l-0.187-0.32
	c-0.026-0.042-0.012-0.098,0.03-0.124c0.001,0,0.002,0,0.002,0l0.309-0.179c0.043-0.025,0.098-0.011,0.123,0.031
	c0,0.001,0,0.001,0,0.002l0.289,0.489c0.031,0.057,0.031,0.127-0.002,0.184V10.695z M7.456,5.544c-0.167,0-0.301-0.135-0.301-0.301
	c0-0.167,0.135-0.302,0.301-0.302h9.089c0.167,0,0.303,0.135,0.303,0.302c0,0.166-0.136,0.301-0.303,0.301l0,0H7.456z"/>
</svg>
