<?xml version="1.0" encoding="utf-8"?>
<!-- Generator: Adobe Illustrator 16.0.0, SVG Export Plug-In . SVG Version: 6.00 Build 0)  -->
<!DOCTYPE svg PUBLIC "-//W3C//DTD SVG 1.1//EN" "http://www.w3.org/Graphics/SVG/1.1/DTD/svg11.dtd">
<svg version="1.1" id="Capa_1" xmlns="http://www.w3.org/2000/svg" xmlns:xlink="http://www.w3.org/1999/xlink" x="0px" y="0px"
	 width="24px" height="24px" viewBox="0 0 24 24" enable-background="new 0 0 24 24" xml:space="preserve">
<circle fill="#FFFFFF" stroke="#FFFFFF" stroke-miterlimit="10" cx="12.001" cy="10.25" r="9"/>
<g id="Capa_1_1_" display="none">
	<circle display="inline" fill="#9A7D22" cx="12" cy="10.4" r="10"/>
</g>
<g id="Capa_3">
	<path d="M11.998,0.001L11.998,0.001C6.338-0.084,1.682,4.435,1.597,10.094c0,0.044,0,0.089,0,0.133
		c0,3.126,1.311,5.527,3.563,7.753c2.972,2.929,5.813,5.599,5.813,5.599c0.311,0.3,0.737,0.45,1.167,0.412v-0.412l0,0V24
		c0.368-0.079,0.715-0.232,1.021-0.455c0,0,2.741-2.74,5.696-5.652c2.254-2.221,3.547-4.533,3.547-7.677
		C22.377,4.547,17.76-0.027,12.091,0C12.06,0,12.029,0,11.998,0.001z M11.998,19c-4.946,0.003-8.957-4.004-8.959-8.949
		c-0.003-4.945,4.003-8.956,8.948-8.959c4.945-0.002,8.957,4.003,8.958,8.949c0,0.003,0,0.007,0,0.011
		C20.941,14.995,16.936,19,11.992,19H11.998z"/>
</g>
<g>
	<path d="M19.129,9.204H4.871C4.666,9.204,4.5,9.371,4.5,9.576v0.783c0,0.205,0.166,0.372,0.371,0.372h0.495l2.785,3.253
		c0.089,0.104,0.22,0.164,0.357,0.163h6.942c0.147,0,0.285-0.068,0.375-0.185l2.421-3.232h0.882c0.205,0,0.371-0.167,0.371-0.372
		V9.576C19.5,9.371,19.334,9.204,19.129,9.204z M11.742,12.939c0,0.039-0.032,0.072-0.072,0.072h-0.455
		c-0.051-0.002-0.098-0.029-0.124-0.074l-0.161-0.283c-0.026-0.045-0.026-0.102,0-0.146l0.213-0.367l-0.08-0.047
		c-0.015-0.009-0.02-0.027-0.011-0.042c0.004-0.007,0.012-0.013,0.021-0.014l0.32-0.062c0.061-0.012,0.122,0.023,0.142,0.083
		l0.104,0.307c0.006,0.016-0.004,0.034-0.021,0.04c-0.008,0.002-0.017,0.001-0.024-0.003l-0.08-0.047l-0.132,0.226h0.292
		c0.039,0,0.071,0.032,0.071,0.071c0,0,0,0,0,0.001L11.742,12.939z M12.064,11.846l0.08-0.047l-0.131-0.226l-0.146,0.252
		c-0.019,0.035-0.063,0.047-0.098,0.027c0,0,0,0-0.001,0l-0.247-0.142c-0.035-0.02-0.047-0.063-0.027-0.098c0,0,0-0.001,0-0.001
		l0.228-0.394c0.025-0.044,0.072-0.072,0.124-0.073h0.326c0.052,0,0.1,0.028,0.126,0.073l0.212,0.367l0.081-0.046
		c0.015-0.008,0.034-0.003,0.042,0.013c0.005,0.007,0.005,0.016,0.003,0.024l-0.107,0.31c-0.02,0.056-0.076,0.091-0.136,0.082
		l-0.317-0.062c-0.018,0.003-0.034-0.008-0.037-0.025s0.008-0.034,0.025-0.037l0,0V11.846z M13.075,12.648l-0.161,0.284
		c-0.025,0.045-0.073,0.072-0.124,0.073l-0.424,0.003v0.093c0,0.017-0.013,0.031-0.03,0.032c-0.009,0-0.019-0.004-0.024-0.011
		l-0.214-0.248c-0.042-0.047-0.042-0.117,0-0.164l0.21-0.247c0.012-0.013,0.031-0.015,0.044-0.004
		c0.007,0.006,0.011,0.015,0.011,0.024v0.093h0.261l-0.147-0.251c-0.021-0.035-0.01-0.079,0.025-0.1l0,0l0.248-0.144
		c0.033-0.021,0.077-0.009,0.098,0.025c0,0,0.001,0.001,0.001,0.001l0.23,0.392C13.104,12.547,13.103,12.603,13.075,12.648z
		 M18.739,10.235H5.263c-0.148-0.007-0.262-0.133-0.255-0.281c0.007-0.138,0.117-0.248,0.255-0.255h13.475
		c0.148-0.007,0.273,0.107,0.28,0.255c0.008,0.147-0.106,0.273-0.255,0.281c-0.009,0-0.017,0-0.025,0H18.739z"/>
	<path fill="#FFFFFF" d="M12.642,11.576l-0.108,0.31c-0.019,0.058-0.079,0.093-0.14,0.082l-0.317-0.062
		c-0.018-0.003-0.028-0.019-0.025-0.036c0.002-0.009,0.008-0.018,0.016-0.022l0.08-0.046l-0.13-0.226l-0.146,0.252
		c-0.02,0.034-0.063,0.047-0.098,0.027c0,0-0.001,0-0.002,0l-0.247-0.142c-0.034-0.019-0.047-0.063-0.027-0.098
		c0,0,0.001-0.001,0.001-0.001l0.227-0.394c0.026-0.044,0.073-0.072,0.124-0.073h0.326c0.053,0,0.101,0.027,0.127,0.073l0.212,0.367
		l0.08-0.047c0.015-0.009,0.034-0.005,0.044,0.009C12.643,11.557,12.645,11.566,12.642,11.576z"/>
	<path fill="#FFFFFF" d="M13.075,12.648l-0.161,0.284c-0.025,0.045-0.073,0.072-0.124,0.073l-0.424,0.003v0.093
		c0,0.017-0.013,0.031-0.03,0.032c-0.009,0-0.019-0.004-0.024-0.011l-0.214-0.248c-0.042-0.047-0.042-0.117,0-0.164l0.21-0.247
		c0.012-0.013,0.031-0.015,0.044-0.004c0.007,0.006,0.011,0.015,0.011,0.024v0.093h0.261l-0.147-0.251
		c-0.021-0.035-0.01-0.079,0.025-0.1l0,0l0.248-0.144c0.033-0.021,0.077-0.009,0.098,0.025c0,0,0.001,0.001,0.001,0.001l0.23,0.392
		C13.104,12.547,13.103,12.603,13.075,12.648z"/>
	<path fill="#FFFFFF" d="M11.744,12.655v0.284c0,0.039-0.033,0.072-0.073,0.072h-0.454c-0.052-0.002-0.099-0.029-0.124-0.074
		l-0.162-0.283c-0.026-0.045-0.026-0.102,0-0.146l0.213-0.367l-0.08-0.047c-0.015-0.009-0.02-0.027-0.011-0.042
		c0.004-0.007,0.012-0.013,0.021-0.014l0.32-0.062c0.062-0.012,0.122,0.023,0.142,0.083l0.104,0.307
		c0.006,0.016-0.004,0.034-0.021,0.04c-0.008,0.002-0.017,0.001-0.024-0.003l-0.08-0.047l-0.131,0.226h0.291
		C11.715,12.582,11.745,12.615,11.744,12.655z"/>
</g>
</svg>
