<?xml version="1.0" encoding="utf-8"?>
<!-- Generator: Adobe Illustrator 16.0.0, SVG Export Plug-In . SVG Version: 6.00 Build 0)  -->
<!DOCTYPE svg PUBLIC "-//W3C//DTD SVG 1.1//EN" "http://www.w3.org/Graphics/SVG/1.1/DTD/svg11.dtd">
<svg version="1.1" id="Capa_1" xmlns="http://www.w3.org/2000/svg" xmlns:xlink="http://www.w3.org/1999/xlink" x="0px" y="0px"
	 width="24px" height="24px" viewBox="0 0 24 24" enable-background="new 0 0 24 24" xml:space="preserve">
<circle fill="#FFFFFF" stroke="#FFFFFF" stroke-miterlimit="10" cx="12.001" cy="10.25" r="9"/>
<g id="Capa_1_1_" display="none">
	<circle display="inline" fill="#9A7D22" cx="12" cy="10.4" r="10"/>
</g>
<g id="Capa_3">
	<path fill="#74953E" d="M11.998,0.001L11.998,0.001C6.338-0.084,1.682,4.435,1.597,10.094c0,0.044,0,0.089,0,0.133
		c0,3.126,1.311,5.527,3.563,7.753c2.972,2.929,5.813,5.599,5.813,5.599c0.311,0.3,0.737,0.45,1.167,0.412v-0.412l0,0V24
		c0.368-0.079,0.715-0.232,1.021-0.455c0,0,2.741-2.74,5.696-5.652c2.254-2.221,3.547-4.533,3.547-7.677
		C22.377,4.547,17.76-0.027,12.091,0C12.06,0,12.029,0,11.998,0.001z M11.998,19c-4.946,0.003-8.957-4.004-8.959-8.949
		c-0.003-4.945,4.003-8.956,8.948-8.959c4.945-0.002,8.957,4.003,8.958,8.949c0,0.003,0,0.007,0,0.011
		C20.941,14.995,16.936,19,11.992,19H11.998z"/>
</g>
<path id="path10" fill="#74953E" d="M10.263,7.604L9.416,6.898V6.462c0.095,0,0.172-0.077,0.172-0.172l0,0V5.604
	C9.586,5.318,9.356,5.088,9.071,5.087H8.384c-0.285,0-0.517,0.231-0.517,0.517V6.29c0,0.095,0.077,0.172,0.172,0.172l0,0v0.437
	L7.186,7.604C7.068,7.703,7,7.849,7,8.002v3.458c0,0.127,0.047,0.25,0.132,0.344c-0.174,0.196-0.174,0.491,0,0.687
	c-0.174,0.196-0.174,0.491,0,0.686c-0.174,0.195-0.174,0.49,0,0.687C7.047,13.957,7,14.08,7,14.207v0.344
	c0,0.477,0.386,0.861,0.862,0.861h1.723c0.476,0,0.861-0.385,0.861-0.861v-0.344c0-0.127-0.047-0.25-0.132-0.346
	c0.174-0.195,0.174-0.49,0-0.687c0.174-0.194,0.174-0.489,0-0.686c0.174-0.195,0.174-0.49,0-0.688
	c0.085-0.095,0.132-0.217,0.132-0.344V8.002C10.448,7.849,10.38,7.703,10.263,7.604z"/>
<path id="path12" fill="#74953E" d="M16.868,10.425c0.174-0.195,0.174-0.49,0-0.686C16.953,9.645,17.001,9.521,17,9.394V8.312
	c0-0.186-0.1-0.356-0.262-0.449l-0.012-0.007L14.59,6.865V6.461c0.096,0,0.174-0.077,0.174-0.172V5.603
	c-0.002-0.285-0.231-0.516-0.518-0.517h-0.688c-0.285,0-0.517,0.231-0.517,0.517V6.29c0,0.092,0.071,0.168,0.164,0.172v0.41
	l-2.136,0.99l-0.013,0.007c-0.161,0.092-0.26,0.263-0.261,0.449v1.08c0,0.127,0.047,0.25,0.132,0.344
	c-0.174,0.196-0.174,0.491,0,0.686c-0.174,0.195-0.174,0.491,0,0.688c-0.174,0.195-0.174,0.49,0,0.686
	c-0.174,0.195-0.174,0.49,0,0.686c-0.173,0.197-0.173,0.492,0,0.686c-0.174,0.195-0.174,0.49,0,0.687
	c-0.084,0.096-0.132,0.219-0.132,0.346v0.344c0,0.477,0.386,0.861,0.862,0.861h4.48c0.475,0,0.86-0.385,0.86-0.861v-0.344
	c0.001-0.127-0.046-0.25-0.132-0.346c0.175-0.195,0.175-0.49,0-0.687c0.174-0.194,0.174-0.489,0-0.686
	c0.175-0.195,0.175-0.49,0-0.686c0.175-0.196,0.175-0.491,0-0.686C17.044,10.918,17.044,10.621,16.868,10.425z"/>
<path id="path26" fill="#FFFFFF" d="M14.352,11.433c-0.098-0.17-0.213-0.329-0.345-0.474c-0.134,0.137-0.249,0.291-0.343,0.457
	c-0.068,0.136-0.1,0.288-0.089,0.439l0,0c0.024,0.238,0.237,0.41,0.474,0.386c0.221-0.022,0.387-0.206,0.389-0.426
	C14.445,11.683,14.416,11.55,14.352,11.433z"/>
<path id="path28" fill="#FFFFFF" d="M9.071,9.188c-0.098-0.17-0.213-0.33-0.345-0.475C8.593,8.851,8.478,9.004,8.383,9.171
	C8.315,9.307,8.284,9.459,8.293,9.61l0,0c0.021,0.238,0.229,0.414,0.466,0.395C8.985,9.986,9.158,9.796,9.155,9.57
	C9.164,9.438,9.135,9.305,9.071,9.188z"/>
</svg>
