<?xml version="1.0" encoding="utf-8"?>
<!-- Generator: Adobe Illustrator 16.0.0, SVG Export Plug-In . SVG Version: 6.00 Build 0)  -->
<!DOCTYPE svg PUBLIC "-//W3C//DTD SVG 1.1//EN" "http://www.w3.org/Graphics/SVG/1.1/DTD/svg11.dtd">
<svg version="1.1" id="Capa_1" xmlns="http://www.w3.org/2000/svg" xmlns:xlink="http://www.w3.org/1999/xlink" x="0px" y="0px"
	 width="24px" height="24px" viewBox="0 0 24 24" enable-background="new 0 0 24 24" xml:space="preserve">
<circle fill="#FFFFFF" stroke="#FFFFFF" stroke-miterlimit="10" cx="12.001" cy="10.25" r="9"/>
<g id="Capa_1_1_" display="none">
	<circle display="inline" fill="#9A7D22" cx="12" cy="10.4" r="10"/>
</g>
<g id="Capa_3">
	<path d="M11.998,0.001L11.998,0.001C6.338-0.084,1.682,4.435,1.597,10.094c0,0.044,0,0.089,0,0.133
		c0,3.126,1.311,5.527,3.563,7.753c2.972,2.929,5.813,5.599,5.813,5.599c0.311,0.3,0.737,0.45,1.167,0.412v-0.412l0,0V24
		c0.368-0.079,0.715-0.232,1.021-0.455c0,0,2.741-2.74,5.696-5.652c2.254-2.221,3.547-4.533,3.547-7.677
		C22.377,4.547,17.76-0.027,12.091,0C12.06,0,12.029,0,11.998,0.001z M11.998,19c-4.946,0.003-8.957-4.004-8.959-8.949
		c-0.003-4.945,4.003-8.956,8.948-8.959c4.945-0.002,8.957,4.003,8.958,8.949c0,0.003,0,0.007,0,0.011
		C20.941,14.995,16.936,19,11.992,19H11.998z"/>
</g>
<g>
	<path d="M14.229,5.047H13.39V4.45c0-0.109-0.087-0.196-0.194-0.196h-2.404c-0.109,0-0.197,0.087-0.197,0.196v0.597h-0.83
		C9.342,5.047,9,5.389,9,5.812v9.67c0,0.423,0.342,0.765,0.765,0.765h4.472c0.422,0,0.764-0.342,0.764-0.765v-9.67
		C14.993,5.389,14.65,5.047,14.229,5.047z M10.995,4.646h2.003v0.4h-2.003V4.646z M13.748,10.771l-2.803,3.4
		c-0.038,0.051-0.095,0.073-0.154,0.073c-0.029,0-0.065-0.008-0.095-0.022c-0.08-0.044-0.123-0.139-0.102-0.232l0.736-2.746h-0.939
		c-0.08,0-0.146-0.044-0.182-0.117c-0.037-0.072-0.022-0.153,0.029-0.211l2.803-3.4c0.059-0.073,0.161-0.095,0.248-0.051
		c0.08,0.044,0.124,0.138,0.101,0.233l-0.733,2.745h0.938c0.082,0,0.147,0.043,0.183,0.117
		C13.805,10.632,13.798,10.712,13.748,10.771z"/>
</g>
</svg>
