<?xml version="1.0" encoding="utf-8"?>
<!-- Generator: Adobe Illustrator 16.0.0, SVG Export Plug-In . SVG Version: 6.00 Build 0)  -->
<!DOCTYPE svg PUBLIC "-//W3C//DTD SVG 1.1//EN" "http://www.w3.org/Graphics/SVG/1.1/DTD/svg11.dtd">
<svg version="1.1" id="Capa_1" xmlns="http://www.w3.org/2000/svg" xmlns:xlink="http://www.w3.org/1999/xlink" x="0px" y="0px"
	 width="24px" height="24px" viewBox="0 0 24 24" enable-background="new 0 0 24 24" xml:space="preserve">
<circle fill="#FFFFFF" stroke="#FFFFFF" stroke-miterlimit="10" cx="12.001" cy="10.25" r="9"/>
<g id="Capa_1_1_" display="none">
	<circle display="inline" fill="#9A7D22" cx="12" cy="10.4" r="10"/>
</g>
<g id="Capa_3">
	<path fill="#74953E" d="M11.998,0.001L11.998,0.001C6.338-0.084,1.682,4.435,1.597,10.094c0,0.044,0,0.089,0,0.133
		c0,3.126,1.311,5.527,3.563,7.753c2.972,2.929,5.813,5.599,5.813,5.599c0.311,0.3,0.737,0.45,1.167,0.412v-0.412l0,0V24
		c0.368-0.079,0.715-0.232,1.021-0.455c0,0,2.741-2.74,5.696-5.652c2.254-2.221,3.547-4.533,3.547-7.677
		C22.377,4.547,17.76-0.027,12.091,0C12.06,0,12.029,0,11.998,0.001z M11.998,19c-4.946,0.003-8.957-4.004-8.959-8.949
		c-0.003-4.945,4.003-8.956,8.948-8.959c4.945-0.002,8.957,4.003,8.958,8.949c0,0.003,0,0.007,0,0.011
		C20.941,14.995,16.936,19,11.992,19H11.998z"/>
</g>
<g>
	<path fill="#74953E" d="M19.225,8.301h-0.649l0.104-1.019l0.264-0.307c0.175,0,0.315-0.142,0.315-0.317l0,0V6.582
		c0-0.175-0.142-0.317-0.315-0.317l0,0h-0.766L17.32,4.727c-0.154-0.298-0.459-0.488-0.795-0.497L7.429,4.2l0,0
		C7.108,4.207,6.813,4.38,6.653,4.658l-0.99,1.606H5.068c-0.163,0-0.294,0.131-0.294,0.293c0,0.001,0,0.002,0,0.004v0.124
		c0,0.163,0.131,0.294,0.293,0.294L5.33,7.286l0.105,1.019H4.676C4.58,8.305,4.5,8.383,4.5,8.48v0.367
		c0,0.097,0.08,0.175,0.176,0.175h0.835l0.528,5.073c0.114,0.742,0.752,1.289,1.502,1.289h0.628v0.349H8.4l0.028,0.302
		c-0.451,0.246-0.617,0.812-0.371,1.264c0.246,0.451,0.812,0.617,1.263,0.371c0.452-0.246,0.618-0.813,0.371-1.264
		c-0.058-0.106-0.137-0.201-0.231-0.277l0.129-0.397h0.15v-0.346h4.425v0.346h0.184l0.026,0.299
		c-0.461,0.236-0.642,0.804-0.401,1.265c0.162,0.315,0.49,0.513,0.846,0.507l0,0c0.156,0.002,0.312-0.037,0.449-0.111
		c0.457-0.246,0.629-0.814,0.383-1.271c-0.061-0.111-0.144-0.211-0.242-0.291l0.127-0.395h0.197v-0.347h0.732
		c0.738,0,1.371-0.528,1.502-1.257l0.527-5.106h0.724c0.156,0,0.282-0.126,0.282-0.281V8.589C19.503,8.434,19.38,8.305,19.225,8.301
		L19.225,8.301z M9.109,16.699c-0.013,0.041-0.051,0.068-0.094,0.068H8.751C8.7,16.766,8.66,16.727,8.657,16.674L8.571,15.73h0.848
		L9.109,16.699z M11.765,12.523c0,0.061-0.048,0.109-0.108,0.109h-0.001h-0.69c-0.078-0.003-0.149-0.046-0.188-0.113l-0.246-0.429
		c-0.04-0.069-0.04-0.153,0-0.222l0.324-0.556l-0.122-0.071c-0.022-0.014-0.029-0.043-0.015-0.066
		c0.006-0.011,0.018-0.019,0.03-0.021l0.485-0.094c0.093-0.016,0.184,0.038,0.215,0.127l0.16,0.465
		c0.008,0.025-0.006,0.052-0.031,0.061c-0.013,0.003-0.026,0.001-0.037-0.005l-0.122-0.071l-0.199,0.341h0.442
		c0.06,0,0.109,0.049,0.109,0.108l0,0L11.765,12.523z M12.253,10.866l0.122-0.07l-0.198-0.343l-0.22,0.384
		c-0.029,0.052-0.095,0.07-0.147,0.042c0-0.001-0.002-0.001-0.003-0.002l-0.375-0.215c-0.052-0.028-0.071-0.094-0.042-0.146
		c0-0.001,0.001-0.002,0.002-0.004l0.345-0.599c0.04-0.068,0.113-0.11,0.192-0.11h0.495c0.077,0.001,0.148,0.043,0.188,0.11
		l0.322,0.558l0.121-0.07c0.021-0.013,0.051-0.006,0.063,0.016c0.008,0.012,0.009,0.026,0.005,0.04l-0.164,0.469
		c-0.029,0.09-0.122,0.144-0.216,0.125l-0.481-0.094c-0.025-0.007-0.041-0.032-0.034-0.058c0.004-0.014,0.015-0.026,0.029-0.032
		L12.253,10.866L12.253,10.866z M13.783,12.087l-0.243,0.431c-0.039,0.067-0.11,0.11-0.188,0.111h-0.643v0.141
		c0.001,0.026-0.02,0.049-0.046,0.049c-0.015,0.002-0.026-0.006-0.037-0.017l-0.324-0.375c-0.063-0.071-0.063-0.179,0-0.249
		l0.318-0.375c0.019-0.021,0.047-0.021,0.065-0.006c0.012,0.009,0.018,0.022,0.018,0.035v0.141H13.1l-0.225-0.379
		c-0.031-0.053-0.016-0.121,0.038-0.151l0,0l0.376-0.219c0.053-0.03,0.119-0.013,0.148,0.04l0,0l0.352,0.594
		c0.04,0.07,0.038,0.156-0.004,0.227L13.783,12.087z M15.057,16.693c-0.013,0.041-0.051,0.07-0.095,0.068h-0.264
		c-0.054,0-0.097-0.042-0.099-0.094l-0.086-0.938h0.853L15.057,16.693z"/>
</g>
</svg>
